<svg width="82" height="82" viewBox="0 0 82 82" fill="none" xmlns="http://www.w3.org/2000/svg">
<path d="M32.4654 0.13136C32.0052 0.609615 32.2144 1.13135 32.842 1.13135C33.1766 1.13135 33.4695 0.957437 33.4695 0.740048C33.4695 0.174838 32.8001 -0.216462 32.4654 0.13136Z" fill="black"/>
<path d="M48.5308 1.13114C48.5308 1.34853 48.6981 1.56592 48.9073 1.56592C49.1583 1.56592 49.4512 1.34853 49.5767 1.13114C49.7022 0.870274 49.5348 0.696363 49.2001 0.696363C48.8236 0.696363 48.5308 0.870274 48.5308 1.13114Z" fill="black"/>
<path d="M40.6655 5.56622C40.791 5.87057 41.293 6.21839 41.7951 6.26187C42.4644 6.3923 42.7155 6.21839 42.59 5.82709C42.4644 5.52274 41.9624 5.17492 41.4604 5.13144C40.791 5.00101 40.54 5.17492 40.6655 5.56622Z" fill="black"/>
<path d="M17.3623 6.34843C17.4878 6.56581 17.9062 6.7832 18.2408 6.7832C18.5755 6.7832 18.8266 6.56581 18.8266 6.34843C18.8266 6.08756 18.45 5.91365 17.948 5.91365C17.4878 5.91365 17.2368 6.08756 17.3623 6.34843Z" fill="black"/>
<path d="M27.1939 7.43615C26.7755 7.95788 26.8173 8.13179 27.403 8.34918C28.1979 8.697 29.0765 7.95788 28.7 7.26224C28.2816 6.61007 27.8214 6.65355 27.1939 7.43615Z" fill="black"/>
<path d="M62.4623 7.56607C62.1694 7.73998 62.0857 8.13128 62.2949 8.4791C62.7133 9.17475 63.5918 8.73997 63.5918 7.82694C63.5918 7.13129 63.2153 7.04434 62.4623 7.56607Z" fill="black"/>
<path d="M53.5513 9.13113C53.5513 9.91373 54.8064 10.4355 55.3502 9.87025C55.5594 9.65286 55.6013 9.26156 55.4758 9.00069C55.0574 8.30505 53.5513 8.43548 53.5513 9.13113Z" fill="black"/>
<path d="M33.5949 12.6967C33.3021 13.5662 34.097 14.1314 35.1847 13.8706C36.2725 13.5662 36.649 12.8706 35.9378 12.3923C35.0174 11.7836 33.8878 11.9575 33.5949 12.6967Z" fill="black"/>
<path d="M44.4727 13.1311C44.2217 13.8703 44.9747 14.6094 46.1043 14.6094C47.0666 14.6094 47.4431 13.8268 46.8574 13.0877C46.188 12.2181 44.8074 12.2616 44.4727 13.1311Z" fill="black"/>
<path d="M15.2703 14.6096C15.103 14.9139 15.1448 15.3052 15.3958 15.5661C15.9816 16.1748 17.2785 15.6531 17.0693 14.9139C16.8183 14.2183 15.6469 14.0009 15.2703 14.6096Z" fill="black"/>
<path d="M23.0101 16.5659C22.5917 17.0876 22.5917 17.3485 23.0101 17.8702C23.6795 18.6963 24.6417 18.6963 24.9346 17.8702C25.1856 17.218 24.4744 15.9137 23.8468 15.9137C23.6795 15.9137 23.3029 16.218 23.0101 16.5659Z" fill="black"/>
<path d="M64.7212 16.5228C64.3865 17.3488 65.5579 18.3923 66.1436 17.7836C66.6456 17.2619 66.1854 15.9141 65.4742 15.9141C65.1814 15.9141 64.8467 16.1749 64.7212 16.5228Z" fill="black"/>
<path d="M55.0571 16.7398C54.6388 17.4354 55.3082 18.5659 56.0194 18.4354C56.3959 18.3485 56.7306 17.8702 56.8143 17.305C56.9398 16.6094 56.7306 16.3485 56.1031 16.3485C55.6428 16.3485 55.1826 16.5224 55.0571 16.7398Z" fill="black"/>
<path d="M6.69385 18.1314C6.69385 18.914 6.77752 18.9575 7.3214 18.5227C7.94895 18.001 7.82344 17.2184 7.07038 17.2184C6.86119 17.2184 6.69385 17.6532 6.69385 18.1314Z" fill="black"/>
<path d="M37.4856 18.044C36.3978 19.2613 36.7325 21.2178 38.1131 21.7396C40.6651 22.6526 42.4223 20.957 41.3345 18.6527C40.6233 17.0875 38.5733 16.7831 37.4856 18.044Z" fill="black"/>
<path d="M73.6328 18.957C73.6328 19.5222 73.842 19.8265 74.1767 19.6961C74.4277 19.6092 74.6787 19.2613 74.6787 18.957C74.6787 18.6526 74.4277 18.3048 74.1767 18.1744C73.842 18.0874 73.6328 18.3918 73.6328 18.957Z" fill="black"/>
<path d="M28.909 19.6529C27.8213 21.0876 27.8213 21.1746 28.8672 22.3485C29.8294 23.3919 30.959 23.5659 32.256 22.8702C33.1764 22.3485 33.3855 19.9137 32.5488 19.0442C31.6702 18.1311 29.8294 18.4355 28.909 19.6529Z" fill="black"/>
<path d="M46.1042 19.218C44.096 20.6528 45.4348 23.4353 48.0705 23.218C49.493 23.0875 49.5766 23.0006 49.7022 21.4354C49.9113 18.6963 48.2379 17.6528 46.1042 19.218ZM46.6899 20.5658C46.2715 21.0006 45.895 20.3484 46.2715 19.7832C46.5226 19.305 46.6062 19.305 46.7736 19.7832C46.8573 20.0876 46.8154 20.4354 46.6899 20.5658Z" fill="black"/>
<path d="M21.3786 24.4786C19.7888 25.9133 19.9143 26.8698 21.8806 27.8698C23.6377 28.7829 24.098 28.6959 25.0602 27.3046C25.8969 26.0872 25.8969 26.0438 25.102 24.6959C24.098 23.0003 23.1775 22.9568 21.3786 24.4786ZM24.6837 25.9568C24.6837 26.1742 24.3908 26.3481 24.0561 26.3481C23.4286 26.3481 23.2194 25.8264 23.6796 25.3481C24.0143 25.0003 24.6837 25.3916 24.6837 25.9568Z" fill="black"/>
<path d="M53.6346 24.7399C52.4632 26.0443 52.4632 26.5225 53.8019 27.6095C55.2244 28.7834 55.7683 28.7399 57.1489 27.5225C58.2366 26.5225 58.2366 26.479 57.5672 25.1312C56.6887 23.3921 54.9734 23.2182 53.6346 24.7399ZM56.4376 26.6964C55.6009 27.0443 54.8897 26.3921 55.0989 25.5225C55.308 24.653 55.308 24.653 56.0611 25.6095C56.4795 26.1312 56.6468 26.653 56.4376 26.6964Z" fill="black"/>
<path d="M14.8102 24.8269C14.4755 25.7399 14.9775 26.3486 16.1071 26.3486C17.2785 26.3486 17.6969 25.8269 17.3204 24.8704C16.9857 24.0008 15.103 23.9574 14.8102 24.8269Z" fill="black"/>
<path d="M63.0059 25.3054C62.6294 26.262 63.0477 26.7837 64.2192 26.7837C65.3069 26.7837 65.9763 25.5228 65.1814 24.9576C64.3028 24.3924 63.2988 24.5663 63.0059 25.3054Z" fill="black"/>
<path d="M7.61437 26.2179C7.78172 27.0874 8.36743 27.3483 9.16233 26.8265C9.91539 26.3048 9.37152 25.4787 8.3256 25.4787C7.73988 25.4787 7.5307 25.7396 7.61437 26.2179Z" fill="black"/>
<path d="M72.2101 28.4791C72.0846 28.6965 72.252 29.0878 72.5867 29.3922C73.0887 29.827 73.3397 29.827 73.8418 29.3922C74.5948 28.74 74.302 28.0878 73.2142 28.0878C72.7958 28.0878 72.3356 28.2618 72.2101 28.4791Z" fill="black"/>
<path d="M16.1906 32.2614C15.7722 32.8701 15.5212 33.6527 15.6467 34.044C15.8977 34.6527 16.0232 34.6527 16.8599 33.9136C17.362 33.4788 17.5293 33.3919 17.2783 33.7397C16.4416 34.6962 16.6089 35.9136 17.5712 35.9136C18.5752 35.9136 20.9181 34.2179 20.9181 33.5223C20.9181 32.6527 19.0355 31.131 17.9477 31.131C17.362 31.131 16.6089 31.6093 16.1906 32.2614ZM20.0814 32.8267C20.0814 33.4788 19.2865 33.8266 18.4916 33.5223C17.9059 33.3049 17.9059 33.218 18.4079 32.8701C19.2028 32.3484 20.0814 32.3049 20.0814 32.8267Z" fill="black"/>
<path d="M57.8182 32.2179C56.6468 33.6091 56.6468 33.8265 58.1529 34.9569C59.8264 36.2613 60.8723 36.1743 61.8764 34.6526C62.9641 33.0874 62.9641 33.0874 61.8345 32.0005C60.5794 30.7831 58.906 30.87 57.8182 32.2179ZM61.7509 33.6526C61.458 33.9135 58.1529 34.1309 58.1529 33.87C58.1529 33.7831 58.7805 33.4352 59.5335 33.0874C60.4958 32.6961 61.0396 32.6526 61.4162 32.957C61.709 33.2178 61.8345 33.5222 61.7509 33.6526Z" fill="black"/>
<path d="M0.167347 32.131C-0.167347 33.044 0.25102 33.6527 0.836735 33.044C1.04592 32.8267 1.08776 32.3919 0.836735 32.0006C0.502041 31.4788 0.418367 31.4788 0.167347 32.131Z" fill="black"/>
<path d="M79.5737 34.0445C79.6574 34.4793 79.9921 34.8271 80.3268 34.8271C80.6615 34.8271 80.9962 34.4793 81.0799 34.0445C81.1635 33.5228 80.9543 33.3054 80.3268 33.3054C79.6992 33.3054 79.4901 33.5228 79.5737 34.0445Z" fill="black"/>
<path d="M11.0448 34.8262C10.1244 35.4784 10.5427 36.7827 11.6723 36.7827C12.5091 36.7827 13.6805 35.2175 13.2203 34.6958C12.7183 34.2175 11.756 34.261 11.0448 34.8262Z" fill="black"/>
<path d="M66.8553 35.5661C66.5206 36.4791 66.939 37.2183 67.7757 37.2183C68.6543 37.2183 69.6165 36.1313 69.24 35.4792C68.8634 34.8705 67.0645 34.9139 66.8553 35.5661Z" fill="black"/>
<path d="M4.18348 38.9568C3.89062 39.1307 3.80695 39.522 3.93246 39.7829C4.35082 40.4785 5.85695 40.3916 5.85695 39.6525C5.85695 38.9133 4.8947 38.4786 4.18348 38.9568Z" fill="black"/>
<path d="M15.3958 40.4789C13.5968 41.7397 13.6386 42.9571 15.5631 44.0006C17.0692 44.8267 18.1151 44.4788 18.7845 43.0441C19.2447 41.9136 18.8682 40.4354 17.8223 39.7398C17.1529 39.2615 17.0692 39.305 15.3958 40.4789ZM17.5713 42.0006C17.5713 42.218 17.3621 42.4354 17.1111 42.4354C16.9019 42.4354 16.8182 42.218 16.9437 42.0006C17.0692 41.7397 17.2784 41.5658 17.4039 41.5658C17.4876 41.5658 17.5713 41.7397 17.5713 42.0006Z" fill="black"/>
<path d="M61.0818 39.6963C60.7471 39.7832 60.1196 40.3484 59.743 40.9137C59.1155 41.7397 59.0737 42.0441 59.5339 42.5223C59.8267 42.8267 60.2032 43.4354 60.3706 43.8267C60.789 45.0006 62.4624 44.7397 63.7594 43.3484L64.9726 42.0441L63.6757 40.7397C62.3788 39.3919 62.2532 39.3485 61.0818 39.6963ZM62.9226 41.3919C63.8849 41.7832 63.7594 42.4354 62.7553 42.4354C62.2951 42.4354 61.9186 42.131 61.9186 41.7832C61.9186 41.0441 62.0022 41.0006 62.9226 41.3919Z" fill="black"/>
<path d="M73.8837 41.9136C73.5072 42.5223 74.7623 43.4353 75.5572 43.131C75.8919 43.0005 76.1429 42.6092 76.0593 42.3049C75.8082 41.6527 74.2184 41.3484 73.8837 41.9136Z" fill="black"/>
<path d="M10.4174 46.3919C10.0409 47.131 10.0827 47.4788 10.6266 48.0006C11.1286 48.5658 11.3797 48.5658 11.8817 48.0875C12.7603 47.3919 12.7184 46.0876 11.8817 45.7397C10.9613 45.3919 10.9613 45.3919 10.4174 46.3919Z" fill="black"/>
<path d="M67.5665 46.9571C66.7716 47.5657 66.7716 47.6527 67.441 48.3483C68.3614 49.3049 69.5328 48.8266 69.3655 47.5657C69.1981 46.3918 68.5706 46.1745 67.5665 46.9571Z" fill="black"/>
<path d="M0 48.7394C0 49.0873 0.292857 49.3916 0.627551 49.3916C0.962245 49.3916 1.2551 49.0873 1.2551 48.7394C1.2551 48.3916 0.962245 48.0873 0.627551 48.0873C0.292857 48.0873 0 48.3916 0 48.7394Z" fill="black"/>
<path d="M17.153 48.6521C17.153 48.9999 16.7764 49.6086 16.3162 50.0434C15.856 50.4781 15.4795 51.0868 15.4795 51.3477C15.4795 51.9999 17.2785 53.3042 18.1989 53.3042C19.1193 53.3042 20.9183 51.9999 20.9183 51.3477C20.9183 50.9999 20.4162 50.1738 19.8305 49.4347C18.7428 48.0434 17.153 47.6086 17.153 48.6521ZM19.454 50.6955C19.3285 50.9129 18.9519 51.1303 18.7009 51.1303C18.4081 51.1303 18.4499 50.9564 18.8264 50.6955C19.6213 50.1738 19.7887 50.1738 19.454 50.6955Z" fill="black"/>
<path d="M58.3623 48.9571C58.2368 49.1745 58.2368 49.6527 58.4042 49.9136C58.5715 50.2179 58.5715 50.3484 58.3623 50.1744C58.195 50.0005 57.7766 50.044 57.4419 50.3484C56.9817 50.7397 57.0654 51.044 57.9858 52.0875C59.4083 53.6092 60.3705 53.6092 61.7511 52.2179C62.797 51.131 62.797 51.0875 62.044 49.8266C61.5001 48.8266 61.0399 48.5223 59.9521 48.5223C59.2409 48.5223 58.4878 48.6962 58.3623 48.9571ZM61.6674 50.7397C61.3746 51.2179 60.245 51.2614 60.245 50.7831C60.245 50.1744 60.7052 49.8701 61.3327 50.131C61.6674 50.2614 61.7929 50.5223 61.6674 50.7397Z" fill="black"/>
<path d="M79.1549 49.6523C79.3222 50.5653 80.0753 50.6523 80.2427 49.6958C80.3263 49.261 80.1171 48.9567 79.6988 48.9567C79.2804 48.9567 79.0712 49.2175 79.1549 49.6523Z" fill="black"/>
<path d="M6.98663 52.6961C6.40092 53.3482 6.73561 54.1743 7.57235 54.1743C8.15806 54.1743 8.36725 53.9569 8.28357 53.4352C8.15806 52.6526 7.44684 52.2613 6.98663 52.6961Z" fill="black"/>
<path d="M71.1223 55.6962C70.7039 56.2179 70.7457 56.3918 71.2896 56.6092C71.6661 56.7396 72.2519 56.7396 72.6284 56.6092C73.1723 56.3918 73.2141 56.2179 72.7957 55.6962C72.5029 55.3484 72.1263 55.044 71.959 55.044C71.7916 55.044 71.4151 55.3484 71.1223 55.6962Z" fill="black"/>
<path d="M54.1784 56.3478C54.0529 56.8261 53.6345 57.2174 53.2998 57.2174C52.1284 57.2174 52.1702 58.5652 53.3835 59.8695C54.011 60.5652 54.7223 61.1304 54.9315 61.1304C55.1825 61.1304 56.0192 60.4347 56.8141 59.5652L58.3202 57.9565L56.8559 56.7391C55.1825 55.2609 54.5549 55.1739 54.1784 56.3478ZM56.4794 57.8695C55.8937 58.5652 54.8059 58.7391 54.8059 58.1304C54.8059 57.6956 55.5172 57.3043 56.4376 57.2609C56.8978 57.2174 56.8978 57.3478 56.4794 57.8695Z" fill="black"/>
<path d="M21.5459 57.0872C20.9602 57.7393 20.5 58.435 20.5 58.5654C20.5 58.7393 21.2112 59.4785 22.048 60.2611L23.5959 61.6523L24.7255 60.2176C26.148 58.435 26.1898 57.9567 25.0184 56.7828C23.8051 55.6089 22.8429 55.6959 21.5459 57.0872ZM24.2235 58.5654C23.3449 59.0872 22.7592 58.2611 23.4286 57.435C23.9306 56.7828 24.0143 56.7828 24.3908 57.4785C24.6418 57.9567 24.6 58.3046 24.2235 58.5654Z" fill="black"/>
<path d="M15.2285 56.9568C14.4755 57.5655 14.4755 57.6524 15.1449 58.3481C15.5214 58.7394 16.149 58.9568 16.4837 58.8263C17.4459 58.435 17.8224 57.2177 17.1112 56.7394C16.3163 56.2177 16.1908 56.2612 15.2285 56.9568Z" fill="black"/>
<path d="M62.546 57.3916C61.8766 57.9133 61.8348 58.0872 62.295 58.6959C62.9644 59.5655 63.2154 59.5655 64.2195 58.7829C64.8889 58.2611 64.9307 58.0872 64.4705 57.4785C63.8011 56.609 63.5501 56.609 62.546 57.3916Z" fill="black"/>
<path d="M29.286 61.1309C29.286 61.3918 28.9513 62.0005 28.4911 62.4787C26.8176 64.3483 29.3278 66.5656 31.7125 65.3483C32.5911 64.9135 32.8421 64.5222 32.7584 63.5222C32.7166 62.7831 32.2564 61.87 31.7543 61.4353C30.7921 60.6092 29.286 60.4353 29.286 61.1309ZM31.3778 62.7831C31.3778 63.3483 30.8757 63.7396 30.4574 63.4787C30.039 63.2178 30.4155 62.4352 31.0013 62.4352C31.2104 62.4352 31.3778 62.6092 31.3778 62.7831Z" fill="black"/>
<path d="M46.7317 61.3042C46.6062 61.6521 46.6899 62.0434 46.9827 62.1738C47.2756 62.2607 47.1919 62.3912 46.8154 62.3912C45.8531 62.4347 45.1001 63.4781 45.4348 64.3912C45.6021 64.8259 46.0205 65.0433 46.4807 64.9129C46.8991 64.7825 47.1919 64.9129 47.1501 65.2172C46.9827 66.0868 49.5348 65.5651 50.246 64.5216C50.9154 63.6086 50.9154 63.5216 49.9113 62.1303C48.7817 60.6086 47.1501 60.2173 46.7317 61.3042ZM49.2838 62.9129C49.2001 63.1738 48.9491 63.3477 48.7399 63.3477C48.5307 63.3477 48.2797 63.1738 48.196 62.9129C48.1123 62.652 48.3634 62.4347 48.7399 62.4347C49.1164 62.4347 49.3674 62.652 49.2838 62.9129Z" fill="black"/>
<path d="M5.43896 63.0873C5.43896 63.5221 5.73182 63.7394 6.19203 63.6525C7.0706 63.4786 6.98692 62.696 6.10835 62.5221C5.68999 62.4351 5.43896 62.6525 5.43896 63.0873Z" fill="black"/>
<path d="M37.8205 63.6526C36.3562 64.87 36.2725 65.8265 37.5276 67.0439C38.8664 68.3482 39.494 68.3482 40.6236 67.1743C42.9664 64.7395 40.3725 61.4787 37.8205 63.6526Z" fill="black"/>
<path d="M13.6806 64.4783C13.0949 65.0435 13.4296 65.9131 14.1826 65.9131C14.9775 65.9131 15.6469 64.9131 15.1867 64.4348C14.852 64.087 14.0153 64.087 13.6806 64.4783Z" fill="black"/>
<path d="M22.592 64.7827C21.8389 65.7392 22.3828 66.7827 23.6379 66.7827C24.6001 66.7827 24.7256 66.6088 24.6001 65.6088C24.4746 64.2175 23.3869 63.8262 22.592 64.7827Z" fill="black"/>
<path d="M72.9214 64.696C73.0051 65.0004 73.3398 65.2612 73.6326 65.2612C73.9255 65.2612 74.2602 65.0004 74.3857 64.696C74.4694 64.3917 74.1765 64.1743 73.6326 64.1743C73.0888 64.1743 72.7959 64.3917 72.9214 64.696Z" fill="black"/>
<path d="M54.3459 65.3477C53.9275 65.8259 53.9694 66.0868 54.5132 66.652C55.3081 67.4781 56.4796 67.0868 56.4796 65.9564C56.4796 64.9129 55.0153 64.4781 54.3459 65.3477Z" fill="black"/>
<path d="M63.2152 66.305C62.5039 66.7833 62.9223 68.2615 63.7172 68.0006C64.2611 67.7832 64.6794 65.9137 64.1356 65.9137C63.9682 65.9137 63.5499 66.0876 63.2152 66.305Z" fill="black"/>
<path d="M33.051 69.8263C32.5908 70.1307 32.549 70.435 32.8836 71.0002C33.4275 71.9567 33.9296 72.0872 34.7245 71.5654C35.1847 71.2611 35.2265 70.9568 34.8918 70.3916C34.3479 69.435 33.8459 69.3046 33.051 69.8263Z" fill="black"/>
<path d="M44.4306 69.9133C43.8868 70.4785 44.5143 71.5654 45.4347 71.5654C46.0623 71.5654 46.9408 70.0872 46.5643 69.6524C46.1459 69.2176 44.9745 69.3481 44.4306 69.9133Z" fill="black"/>
<path d="M24.391 73.5653C24.2655 73.9131 24.391 74.4783 24.6421 74.7392C25.0604 75.1305 25.3114 75.087 25.7298 74.4348C26.0645 74 26.2319 73.4348 26.1063 73.2609C25.7298 72.6087 24.6839 72.8261 24.391 73.5653Z" fill="black"/>
<path d="M51.5012 73.8696C50.9992 74.5217 51.292 75.0435 52.1706 75.0435C52.4634 75.0435 52.7145 74.6522 52.7145 74.1739C52.7145 73.1739 52.1706 73.0435 51.5012 73.8696Z" fill="black"/>
<path d="M16.4418 75.2612C16.3163 75.6525 16.3163 76.0438 16.4418 76.1743C16.8183 76.5656 17.5714 75.9134 17.5714 75.2177C17.5714 74.3917 16.7765 74.4351 16.4418 75.2612Z" fill="black"/>
<path d="M61.5418 75.2177C61.1652 75.6525 61.1652 75.9133 61.4999 76.1307C62.2112 76.5655 63.0479 75.609 62.504 75.0438C62.1693 74.696 61.8765 74.7829 61.5418 75.2177Z" fill="black"/>
<path d="M38.3643 76.2173C37.8204 76.739 38.0714 77.2173 38.9081 77.2173C39.3683 77.2173 39.7449 76.9129 39.7449 76.5651C39.7449 75.913 38.8663 75.6521 38.3643 76.2173Z" fill="black"/>
<path d="M31.2519 80.9565C30.8753 81.3913 31.3356 82 32.0468 82C32.3815 82 32.6325 81.6957 32.6325 81.3478C32.6325 80.6957 31.7539 80.4348 31.2519 80.9565Z" fill="black"/>
<path d="M47.108 81C46.6478 81.4783 46.857 82 47.4845 82C47.8192 82 48.1121 81.8261 48.1121 81.6087C48.1121 81.0435 47.4427 80.6522 47.108 81Z" fill="black"/>
</svg>
